# xmcd CD database file
#
# Track frame offsets:
#	150
#	33876
#	66274
#	97735
#	136675
#	173576
#	214617
#
# Disc length: 3453 seconds
#
# Revision: 0
# Processed by: cddbd v1.5.2PL0 Copyright (c) Steve Scherf et al.
# Submitted via: CDex 1.51
#
DISCID=4e0d7b07
DTITLE=Jazzgrove Mothership Orchestra - Dream Wheel
DYEAR=2006
DGENRE=Jazz
TTITLE0=Teen Adventure
TTITLE1=Mean MF
TTITLE2=Dream Wheel
TTITLE3=Autumn Things
TTITLE4=Constance's Structure
TTITLE5=Campaign or Come Swine
TTITLE6=Bista
EXTD=YEAR: 2006
EXTT0=
EXTT1=
EXTT2=
EXTT3=
EXTT4=
EXTT5=
EXTT6=
PLAYORDER=
